HIERARCHY
ROOT root
{
	OFFSET 0.000000 0.000000 0.000000
	CHANNELS 6 Xposition Yposition Zposition Zrotation Yrotation Xrotation
	JOINT lhip
	{
		OFFSET 0.058581 -0.082280 -0.017664
		CHANNELS 3 Zrotation Yrotation Xrotation
		JOINT lknee
		{
			OFFSET 0.043451 -0.386469 0.008037
			CHANNELS 3 Zrotation Yrotation Xrotation
			JOINT lankle
			{
				OFFSET -0.014790 -0.426874 -0.037428
				CHANNELS 3 Zrotation Yrotation Xrotation
				JOINT ltoe
				{
					OFFSET 0.041054 -0.060286 0.122042
					CHANNELS 3 Zrotation Yrotation Xrotation
					End Site
					{
						OFFSET 0.000000 0.000000 0.000000
					}
				}
			}
		}
	}
	JOINT rhip
	{
		OFFSET -0.060310 -0.090513 -0.013543
		CHANNELS 3 Zrotation Yrotation Xrotation
		JOINT rknee
		{
			OFFSET -0.043257 -0.383688 -0.004843
			CHANNELS 3 Zrotation Yrotation Xrotation
			JOINT rankle
			{
				OFFSET 0.019056 -0.420046 -0.034562
				CHANNELS 3 Zrotation Yrotation Xrotation
				JOINT rtoe
				{
					OFFSET -0.034840 -0.062106 0.130323
					CHANNELS 3 Zrotation Yrotation Xrotation
					End Site
					{
						OFFSET 0.000000 0.000000 0.000000
					}
				}
			}
		}
	}
	JOINT lowerback
	{
		OFFSET 0.004439 0.124404 -0.038385
		CHANNELS 3 Zrotation Yrotation Xrotation
		JOINT upperback
		{
			OFFSET 0.004488 0.137956 0.026820
			CHANNELS 3 Zrotation Yrotation Xrotation
			JOINT chest
			{
				OFFSET -0.002265 0.056032 0.002855
				CHANNELS 3 Zrotation Yrotation Xrotation
				JOINT lowerneck
				{
					OFFSET -0.013390 0.211636 -0.033468
					CHANNELS 3 Zrotation Yrotation Xrotation
					JOINT upperneck
					{
						OFFSET 0.010113 0.088937 0.050410
						CHANNELS 3 Zrotation Yrotation Xrotation
						End Site
						{
							OFFSET 0.000000 0.000000 0.000000
						}
					}
				}
				JOINT lclavicle
				{
					OFFSET 0.071702 0.114000 -0.018898
					CHANNELS 3 Zrotation Yrotation Xrotation
					JOINT lshoulder
					{
						OFFSET 0.122921 0.045205 -0.019046
						CHANNELS 3 Zrotation Yrotation Xrotation
						JOINT lelbow
						{
							OFFSET 0.255332 -0.015649 -0.022946
							CHANNELS 3 Zrotation Yrotation Xrotation
							JOINT lwrist
							{
								OFFSET 0.265709 0.012698 -0.007375
								CHANNELS 3 Zrotation Yrotation Xrotation
								End Site
								{
									OFFSET 0.000000 0.000000 0.000000
								}
							}
						}
					}
				}
				JOINT rclavicle
				{
					OFFSET -0.082954 0.112472 -0.023707
					CHANNELS 3 Zrotation Yrotation Xrotation
					JOINT rshoulder
					{
						OFFSET -0.113228 0.046853 -0.008472
						CHANNELS 3 Zrotation Yrotation Xrotation
						JOINT relbow
						{
							OFFSET -0.260127 -0.014369 -0.031269
							CHANNELS 3 Zrotation Yrotation Xrotation
							JOINT rwrist
							{
								OFFSET -0.269108 0.006794 -0.006027
								CHANNELS 3 Zrotation Yrotation Xrotation
								End Site
								{
									OFFSET 0.000000 0.000000 0.000000
								}
							}
						}
					}
				}
			}
		}
	}
}
MOTION
Frames: 13
Frame Time: 0.033333
1.730722 0.669504 0.982828 -89.274650 2.961153 84.735589 1.361854 -1.849209 6.422648 -2.193981 -12.776567 10.076846 4.746536 12.355792 -23.128595 0.000000 -0.000000 0.000000 5.018130 -2.603172 6.041377 2.625872 2.403098 8.979219 0.651190 -6.738880 -17.353989 0.000000 -0.000000 0.000000 -0.711953 2.278875 3.471571 1.967580 -1.560714 4.741143 1.224326 -0.283412 5.242780 5.338540 3.203336 -2.492807 2.114129 -0.831799 6.173308 -23.183803 8.356457 3.413860 -66.808435 -2.548035 7.326389 14.998572 -27.295040 4.332421 3.012460 -0.909444 -12.955124 21.919286 -4.849741 3.118604 65.480337 0.814270 9.015235 -18.051950 23.273413 -2.348726 5.030079 0.319074 -9.175295 
1.730222 0.669119 0.982642 -89.225882 2.982341 84.652055 1.203286 -2.076305 6.317762 -2.181353 -12.830932 10.641066 4.630326 12.597943 -23.298500 0.000000 -0.000000 0.000000 5.095632 -2.373788 5.855483 2.499805 2.044078 9.597946 0.766088 -6.738115 -17.579942 0.000000 -0.000000 0.000000 -0.699117 2.339669 3.354091 2.141362 -1.636002 5.092320 0.985241 -0.221471 5.199034 5.618634 3.771162 -2.635517 2.284323 -1.133200 6.295803 -22.955395 8.384838 3.083588 -66.760454 -2.428628 7.719772 14.918093 -27.517217 4.395011 3.475316 -0.766073 -13.572301 22.216911 -4.958093 2.872576 65.337686 0.848514 9.213870 -18.263519 24.060448 -2.135626 4.254613 0.659221 -9.371846 
1.729724 0.669100 0.982429 -89.311064 2.955291 84.610525 1.106078 -2.049374 6.353895 -2.193148 -13.002423 10.801877 4.753523 12.885724 -23.376393 0.000000 -0.000000 0.000000 5.226081 -2.397844 5.423854 2.396150 2.649788 10.472844 0.571533 -7.236682 -18.055604 0.000000 -0.000000 0.000000 -0.869950 2.388611 3.222381 2.231007 -1.591933 5.172285 1.033050 -0.225752 5.290441 5.621094 3.527687 -2.308642 2.098403 -1.268455 6.242988 -22.760054 8.462583 3.074905 -66.724059 -2.497682 7.732921 14.696304 -27.815829 4.471953 4.369067 -0.233479 -13.707945 22.143288 -4.924878 2.720040 65.541810 0.934639 9.436993 -18.395395 24.619842 -2.274538 3.107416 0.557007 -9.158856 
1.728754 0.669059 0.982054 -89.202801 2.970839 84.361239 1.133608 -1.856782 6.512835 -2.275447 -13.106665 11.120476 4.818189 12.710809 -23.572029 0.000000 -0.000000 0.000000 5.286221 -2.356044 5.604726 2.363906 2.481902 10.786233 0.473865 -7.323829 -18.326316 0.000000 -0.000000 0.000000 -1.028286 2.401519 3.226140 2.331376 -1.648132 5.337398 1.097542 -0.286947 5.289639 5.715476 3.447030 -1.993556 1.854032 -1.264905 6.515868 -22.701953 8.414838 3.127859 -66.735747 -2.605225 7.683236 14.838421 -28.050898 4.350394 4.210023 -0.143001 -13.984918 22.097191 -4.829752 2.765752 65.667022 1.124626 9.545530 -18.448752 25.252374 -2.493669 3.379118 0.811226 -9.846277 
1.728039 0.669194 0.981829 -89.130908 3.070779 84.161556 1.265442 -1.867159 6.717756 -2.342778 -13.128689 11.260423 4.606761 12.822741 -23.587036 0.000000 -0.000000 0.000000 5.434735 -2.372385 5.899440 2.305030 2.494979 10.730208 0.406957 -7.418012 -18.427171 0.000000 -0.000000 0.000000 -0.959807 2.355065 3.340318 2.347670 -1.690640 5.300383 1.110590 -0.271224 5.216728 5.705572 3.210021 -1.757218 1.566051 -1.370039 7.423361 -22.752418 8.331732 3.295799 -66.608523 -2.709598 7.422742 14.939897 -27.999747 4.287484 4.408914 -0.287133 -13.771688 21.975081 -4.710732 2.941662 65.981133 1.210487 9.579486 -18.462133 25.483194 -1.822500 3.579524 0.490274 -9.320861 
1.727452 0.669119 0.981573 -88.923272 3.115311 84.313725 1.253669 -2.125836 6.545325 -2.318927 -13.136092 11.399204 4.620880 12.833236 -23.726632 0.000000 -0.000000 0.000000 5.474403 -2.300909 5.832530 2.352554 2.277031 10.661784 0.409750 -7.435300 -18.410727 0.000000 -0.000000 0.000000 -1.023708 2.340118 2.958542 2.382746 -1.798282 5.419119 1.079602 -0.262781 5.343951 5.800534 3.447756 -1.399371 2.089962 -1.420832 6.806046 -22.753832 8.206365 3.076172 -66.576639 -2.653329 7.748473 15.077384 -28.110982 3.952409 4.602336 -0.371852 -14.095072 22.128183 -4.642027 2.653028 66.076034 1.205955 9.811614 -18.791202 25.609897 -2.337824 3.159103 0.639865 -9.755269 
1.726814 0.669245 0.981240 -88.919111 3.196554 84.242059 1.385882 -2.047992 6.642583 -2.382771 -13.176090 11.446910 4.660731 12.835788 -23.865494 0.000000 -0.000000 0.000000 5.587126 -2.279771 5.982793 2.336875 2.313452 10.631222 0.324558 -7.534010 -18.483251 0.000000 -0.000000 0.000000 -1.057925 2.356501 2.934681 2.450250 -1.742902 5.377419 1.133077 -0.240131 5.314560 5.942798 3.034194 -0.954417 1.876077 -1.457728 7.036674 -22.684238 8.188814 3.239822 -66.685107 -2.794486 7.661644 15.112788 -28.238224 3.954652 4.496164 -0.160981 -14.314035 21.961888 -4.643622 2.737199 66.347316 1.296270 9.851253 -18.833147 25.821645 -2.100572 3.400237 0.540968 -9.828597 
1.726785 0.669290 0.980991 -88.976457 3.186854 84.370907 1.382906 -2.037382 6.483282 -2.365314 -13.123561 11.453046 4.750955 12.805723 -23.826115 0.000000 -0.000000 0.000000 5.529471 -2.545767 5.831733 2.296957 2.369031 10.642299 0.322138 -7.247236 -18.464241 0.000000 -0.000000 0.000000 -1.210756 2.447616 2.701831 2.507803 -1.746886 5.446826 1.174783 -0.167948 5.323388 6.122650 3.061863 -0.856044 1.987191 -1.672642 7.245585 -22.706391 8.171950 3.182036 -66.758378 -2.940818 7.829054 15.094661 -28.239417 4.003087 4.847466 0.083787 -14.051352 22.109876 -4.481565 2.785873 66.368609 1.502982 10.002772 -18.920655 25.655201 -2.194657 3.193035 0.557482 -10.148054 
1.726556 0.669078 0.980914 -88.857348 3.221241 84.377351 1.423416 -2.050167 6.463406 -2.389394 -13.191247 11.488103 4.718821 12.779498 -23.891416 0.000000 -0.000000 0.000000 5.538601 -2.540049 5.886286 2.380602 2.447963 10.604201 0.348018 -7.443492 -18.428309 0.000000 -0.000000 0.000000 -1.204919 2.434077 2.659404 2.567451 -1.732302 5.464303 1.161569 -0.196131 5.335664 6.300107 2.830619 -1.119184 1.641154 -1.980893 7.724160 -22.760520 8.198257 3.163158 -66.745945 -3.088748 7.810370 14.990750 -28.376820 4.065514 4.174267 -0.082020 -14.035120 22.186065 -4.419402 2.826524 66.382660 1.589738 10.102945 -19.077620 25.740106 -2.257468 3.618771 0.518129 -9.964869 
1.726609 0.668749 0.981078 -88.870006 3.229276 84.373422 1.409977 -2.149975 6.451259 -2.448049 -13.130096 11.576681 4.786744 12.812457 -23.896296 0.000000 -0.000000 0.000000 5.471665 -2.584737 5.902369 2.459718 2.469627 10.617139 0.373552 -7.427886 -18.457531 0.000000 -0.000000 0.000000 -1.173111 2.439137 2.682375 2.534438 -1.707676 5.552756 1.120500 -0.124891 5.323658 6.499310 2.622325 -1.623179 1.862602 -2.327964 7.726629 -22.804651 8.087608 3.157162 -66.820514 -3.022490 7.983408 15.085165 -28.839276 4.187944 4.471008 0.009173 -13.978264 22.272118 -4.277826 2.763978 66.429088 1.573170 10.088919 -19.042935 25.806841 -2.132636 3.435583 0.208936 -9.525526 
1.726287 0.668540 0.980975 -88.890757 3.249873 84.303948 1.427237 -2.036375 6.567935 -2.460234 -13.255597 11.488717 4.992132 12.768838 -23.992710 0.000000 -0.000000 0.000000 5.438703 -2.637197 6.049655 2.500531 2.488487 10.540772 0.358242 -7.399208 -18.500944 0.000000 -0.000000 0.000000 -1.137773 2.460386 2.803340 2.486236 -1.627031 5.520425 1.109494 -0.081826 5.321391 6.535235 2.878096 -1.374045 1.995680 -1.974467 7.709553 -22.733149 8.109955 3.107572 -66.994563 -3.040017 8.017946 15.150996 -28.958055 4.480247 4.586921 0.193920 -13.908805 22.246140 -4.347150 2.721366 66.519009 1.556653 10.062577 -18.903571 25.853411 -1.954076 3.497969 0.181176 -9.584467 
1.726765 0.668452 0.980791 -89.088978 3.146124 84.445827 1.337969 -1.950838 6.353846 -2.483566 -12.996581 11.581797 4.873367 12.763128 -23.862549 0.000000 -0.000000 0.000000 5.333171 -2.358138 5.762465 2.473377 2.289442 10.755282 0.392554 -7.233748 -18.498378 0.000000 -0.000000 0.000000 -1.220635 2.584225 2.677081 2.442219 -1.520997 5.594139 1.066287 -0.029675 5.349662 6.593056 3.195618 -1.458094 2.105387 -1.883152 7.724603 -22.762142 8.089563 2.992330 -67.122945 -3.091881 8.173176 15.423956 -28.871199 4.311234 4.905824 -0.019407 -13.772602 22.275345 -4.367316 2.726870 66.585625 1.700524 10.195981 -18.794465 25.697858 -1.970275 3.366696 0.519417 -10.017925 
1.726229 0.667761 0.980969 -88.865797 3.190401 84.226599 1.285568 -2.042649 6.711506 -2.374023 -13.162912 11.402564 4.746035 12.743073 -23.848840 0.000000 -0.000000 0.000000 5.337203 -2.675452 6.141546 2.376220 2.283761 10.554403 0.367096 -7.148732 -18.524965 0.000000 -0.000000 0.000000 -1.068732 2.460112 2.913508 2.372995 -1.647644 5.732869 1.024730 0.016278 5.242450 6.643907 3.261874 -1.434545 2.315645 -1.907227 7.667022 -22.808850 8.017568 2.928388 -67.229128 -3.024938 8.153095 15.548346 -28.779771 4.349681 4.661224 -0.204419 -13.899981 22.232111 -4.333303 2.703581 66.626503 1.673725 10.106249 -18.750757 25.569956 -1.786793 3.406982 0.448272 -9.866570 
